<?xml version="1.0" standalone="no"?>
<!DOCTYPE svg PUBLIC "-//W3C//DTD SVG 20010904//EN"
 "http://www.w3.org/TR/2001/REC-SVG-20010904/DTD/svg10.dtd">
<svg version="1.0" xmlns="http://www.w3.org/2000/svg"
 width="700.000000pt" height="700.000000pt" viewBox="0 0 700.000000 700.000000"
 preserveAspectRatio="xMidYMid meet">
<metadata>
Created by potrace 1.14, written by Peter Selinger 2001-2017
</metadata>
<g transform="translate(0.000000,700.000000) scale(0.100000,-0.100000)"
fill="#000000" stroke="none">
<path d="M5407 6064 c-240 -64 -424 -163 -881 -474 -12 -8 -45 -32 -73 -52
l-51 -38 -56 25 c-97 43 -294 104 -386 120 -19 3 -53 10 -75 15 -36 7 -100 16
-205 26 -48 5 -305 4 -360 -1 -423 -39 -795 -183 -1142 -442 -103 -77 -292
-258 -364 -348 -21 -27 -44 -55 -50 -61 -5 -7 -40 -56 -76 -110 -187 -280
-302 -578 -354 -914 -31 -203 -21 -572 21 -745 2 -11 11 -49 19 -85 13 -60 68
-227 112 -341 l18 -47 -33 -43 c-254 -341 -438 -647 -509 -850 -38 -107 -42
-131 -47 -250 -8 -169 46 -297 170 -411 38 -35 136 -83 197 -97 259 -60 624
90 1206 495 l102 71 48 -23 c128 -61 415 -140 573 -158 31 -4 67 -9 80 -12 37
-7 335 -8 414 0 77 7 166 21 235 36 25 6 54 12 65 14 158 30 432 140 620 248
222 129 466 347 624 558 31 41 59 77 64 78 4 2 7 7 7 12 0 5 18 35 39 67 170
256 297 623 328 948 14 147 8 460 -12 548 -2 12 -6 36 -9 52 -20 132 -70 310
-126 446 l-27 66 56 76 c206 278 391 602 455 795 54 160 70 319 47 442 -26
130 -129 274 -239 333 -114 60 -271 71 -425 31z m83 -611 c-24 -77 -136 -291
-216 -415 l-83 -128 -133 133 -133 132 110 73 c61 40 154 98 207 129 100 56
249 125 256 118 2 -2 -1 -21 -8 -42z m-2300 -300 c-109 -199 -298 -455 -505
-683 -84 -93 -247 -253 -310 -305 -33 -28 -62 -53 -65 -56 -6 -7 -156 -119
-194 -144 -134 -92 -334 -210 -343 -202 -7 8 29 171 61 268 51 157 102 268
179 391 206 327 496 569 847 709 106 42 286 93 341 97 l31 2 -42 -77z m1466
-328 c116 -105 254 -257 254 -280 0 -10 -128 -169 -269 -335 -89 -104 -249
-282 -340 -379 -18 -20 -74 -81 -125 -136 -129 -141 -608 -620 -751 -751 -224
-206 -250 -229 -425 -379 -189 -162 -284 -241 -419 -348 -47 -37 -93 -73 -101
-80 -9 -7 -21 -17 -28 -21 -17 -10 -80 38 -179 136 l-82 81 129 88 c71 48 173
120 227 160 89 67 351 274 363 288 3 3 39 35 80 71 158 136 269 240 442 413
489 489 882 981 1124 1404 61 107 59 105 100 68z m555 -902 c7 -32 14 -62 15
-68 9 -38 24 -153 29 -220 l6 -80 -86 -129 c-126 -187 -425 -591 -465 -626 -3
-3 -43 -50 -90 -105 -139 -164 -232 -263 -361 -380 -176 -161 -416 -341 -662
-498 l-117 -76 -68 5 c-63 4 -109 9 -192 20 -53 8 -204 45 -212 53 -4 3 29 35
74 71 45 36 86 70 92 75 6 6 52 44 101 85 50 41 92 78 95 81 3 3 42 38 88 77
45 39 101 88 125 110 23 21 94 86 157 143 256 233 647 624 926 926 55 59 106
114 114 123 8 8 66 74 129 145 63 72 117 132 121 135 3 3 41 47 84 98 43 50
80 92 82 92 1 0 8 -26 15 -57z m-3144 -2089 c-1 -1 -63 -40 -138 -87 -152 -96
-297 -175 -376 -206 l-53 -21 26 58 c42 97 201 355 292 477 15 20 20 16 133
-99 65 -66 117 -121 116 -122z"/>
</g>
</svg>
