<svg version="1" xmlns="http://www.w3.org/2000/svg" width="1802.667" height="1802.667" viewBox="0 0 1352.000000 1352.000000"><path d="M418.5 274.9c-13.9 2.3-23.5 5.9-33.6 12.7-9 5.9-15.9 13.9-21.3 24.4l-4.5 8.6-13.8 1.2c-79.1 7.1-140.8 30.8-198.3 76.3-13.5 10.6-45.1 42.3-56.3 56.3-31.1 39.1-56.3 85.5-72 132.6-5 15-7.2 24.2-10.6 44.1-12.3 73.1-10 141.2 6.4 190.5 17.5 52.2 51.3 92.8 95 113.9 26.8 12.9 73.8 25.6 110.5 29.9 22.2 2.6 60.7 5.5 90.5 6.7l28 1.1L357 980c126.2 46.8 264.3 78.3 385 88 27.8 2.2 137.1 7 227.5 10 106.2 3.5 201.7-1.7 250.5-13.6 60.3-14.8 113.3-50.2 126-84.1 4.2-11.3 5.2-18 4.7-31.8-.5-15.8-2.8-24.7-9.8-39.5-5.8-12.2-10.2-18.4-21.3-29.9-18.2-18.8-37.8-31.1-77.6-48.8-37.9-16.9-66.9-26.9-124-43.3-69.2-19.7-126.4-33.2-188.5-44.5l-9-1.6.3-17.5c.8-44.3-9.1-102.6-25.8-152.4-13.5-40.1-28.4-68.7-50.2-96.3-10.4-13.1-34.2-36.8-48.3-48.1-56.1-44.8-134.5-77.7-226.5-95-18.2-3.4-47.8-7.8-61.5-9.2l-7-.6-3.4-7.3c-10.7-23.2-36-38.9-64.6-40-5.5-.2-12.2 0-15 .4zm24.7 39.1c17.4 5.3 26.9 20 23.9 36.7-2.2 11.8-8.3 19.8-18.7 24.9-5.3 2.6-6.9 2.8-16.4 2.8-8.6.1-11.5-.4-16.1-2.2-12.5-5-20.8-16.7-21.7-30.5-.5-8.7.8-14 5.1-20.3 7.6-11.2 27.6-16.4 43.9-11.4zm420.3 281.2c7.5 24.4 14.1 56.5 17.6 85.9 2.5 21.2 3 51.6 1 66.9-4.6 35.5-16.9 66.6-36.9 93.7-27.7 37.4-74 64.9-135 80.2-28.5 7.2-62.3 10.7-125.1 12.9l-19.4.7-6.7-9.5c-9.6-13.5-15.1-22.8-23-39.2-15.6-32.4-22.6-62.1-23.7-99.8-.9-32.3 2.7-64.3 8.6-75.8 5.1-10 15-16.6 32.3-21.6 10.5-3 58-12.8 109.8-22.5 20.6-3.9 41.8-8.1 47-9.2 30.2-6.8 81.1-29.7 127.5-57.6 12.1-7.3 22.3-13.3 22.7-13.3.4 0 1.9 3.7 3.3 8.2z"/></svg>