<?xml version="1.0" standalone="no"?>
<!DOCTYPE svg PUBLIC "-//W3C//DTD SVG 20010904//EN"
 "http://www.w3.org/TR/2001/REC-SVG-20010904/DTD/svg10.dtd">
<svg version="1.0" xmlns="http://www.w3.org/2000/svg"
 width="512.000000pt" height="512.000000pt" viewBox="0 0 512.000000 512.000000"
 preserveAspectRatio="xMidYMid meet">
<metadata>
Created by potrace 1.11, written by Peter Selinger 2001-2013
</metadata>
<g transform="translate(0.000000,512.000000) scale(0.100000,-0.100000)"
fill="#000000" stroke="none">
<path d="M0 2560 l0 -2560 2560 0 2560 0 0 2560 0 2560 -2560 0 -2560 0 0
-2560z m2631 1698 c18 -6 135 -70 259 -141 215 -124 687 -395 965 -554 155
-89 158 -92 190 -156 l25 -51 0 -775 c0 -482 -4 -790 -10 -812 -19 -67 -70
-112 -248 -213 -92 -53 -177 -96 -188 -96 -52 0 -52 -4 -57 545 -2 281 -8 520
-12 533 -6 19 -13 22 -33 17 -44 -11 -364 -199 -411 -241 l-46 -42 -3 -537
c-3 -575 -1 -552 -53 -626 -18 -25 -293 -191 -371 -224 -44 -18 -102 -19 -148
-4 -18 7 -146 77 -284 157 -138 79 -420 241 -626 359 -479 274 -471 269 -504
334 l-26 53 0 774 c0 559 3 785 12 813 23 78 65 113 288 239 110 62 746 427
918 527 90 52 182 103 205 113 48 22 109 25 158 8z"/>
<path d="M2485 4097 c-33 -18 -229 -131 -435 -252 -206 -120 -415 -241 -464
-269 -49 -28 -112 -72 -140 -99 l-51 -47 40 -35 c22 -19 76 -55 120 -81 506
-296 881 -511 943 -543 l62 -31 43 21 c23 12 141 79 262 149 854 496 844 490
845 522 0 10 -21 35 -48 55 -56 45 -65 50 -592 356 -392 227 -501 287 -517
287 -4 0 -35 -15 -68 -33z"/>
</g>
</svg>
